HIERARCHY
ROOT Hips
{
  OFFSET 122.187 97.6396 139.654
  CHANNELS 6 Xposition Yposition Zposition Zrotation Xrotation Yrotation
  JOINT RightUpLeg
  {
    OFFSET -8.9458 -8.66707 0.101652
    CHANNELS 3 Zrotation Xrotation Yrotation
    JOINT RightLeg
    {
      OFFSET 0 -44.4227 1.3727
      CHANNELS 3 Zrotation Xrotation Yrotation
      JOINT RightFoot
      {
        OFFSET 0.253549 -42.0924 -1.46059
        CHANNELS 3 Zrotation Xrotation Yrotation
        JOINT RightToes
        {
          OFFSET 0.04 -4.41509 8.4991
          CHANNELS 3 Zrotation Xrotation Yrotation
          End Site
          {
            OFFSET -0.08 -0.137448 9.77979
          }
        }
      }
    }
  }
  JOINT Spine
  {
    OFFSET 0 11.8905 0
    CHANNELS 3 Zrotation Xrotation Yrotation
    JOINT Spine1
    {
      OFFSET 0 25.6574 0.127663
      CHANNELS 3 Zrotation Xrotation Yrotation
      JOINT HEad
      {
        OFFSET 0 8.73416 0.011341
        CHANNELS 3 Zrotation Xrotation Yrotation
        End Site
        {
          OFFSET -0.29 12.7742 2.51395
        }
      }
      JOINT LeftShoulder1
      {
        OFFSET 8.99 -0.362252 -0.22
        CHANNELS 3 Zrotation Xrotation Yrotation
        JOINT LeftArm
        {
          OFFSET 10.2827 -0.00338 0.322123
          CHANNELS 3 Zrotation Xrotation Yrotation
          JOINT LeftForeArm
          {
            OFFSET 32.7669 0.099144 -1.42434
            CHANNELS 3 Zrotation Xrotation Yrotation
            JOINT LeftHand
            {
              OFFSET 27.5643 0.085362 1.02216
              CHANNELS 3 Zrotation Xrotation Yrotation
              End Site
              {
                OFFSET 16.7443 -0.6 1.50291
              }
            }
          }
        }
      }
      JOINT RightShoulder
      {
        OFFSET -8.99 -0.362252 -0.22
        CHANNELS 3 Zrotation Xrotation Yrotation
        JOINT RightArm
        {
          OFFSET -10.2827 -0.00338 0.322123
          CHANNELS 3 Zrotation Xrotation Yrotation
          JOINT RightForeArm
          {
            OFFSET -32.8971 0.099144 -1.42434
            CHANNELS 3 Zrotation Xrotation Yrotation
            JOINT RightHand
            {
              OFFSET -27.4921 0.085362 1.02216
              CHANNELS 3 Zrotation Xrotation Yrotation
              End Site
              {
                OFFSET -16.6312 -0.6 1.50291
              }
            }
          }
        }
      }
    }
  }
  JOINT LeftUpLeg
  {
    OFFSET 8.9458 -8.66707 0.101652
    CHANNELS 3 Zrotation Xrotation Yrotation
    JOINT LeftLeg
    {
      OFFSET 0 -44.4227 1.3727
      CHANNELS 3 Zrotation Xrotation Yrotation
      JOINT LeftFoot
      {
        OFFSET -0.253549 -42.0924 -1.46059
        CHANNELS 3 Zrotation Xrotation Yrotation
        JOINT LeftToes
        {
          OFFSET -0.04 -4.41509 8.4991
          CHANNELS 3 Zrotation Xrotation Yrotation
          End Site
          {
            OFFSET 0.08 -0.047448 9.77979
          }
        }
      }
    }
  }
}
MOTION
Frames:	15
Frame Time:	0.0166667
101.386 95.0755 168.375 -12.9535 0.705096 -93.5974 -17.0302 -17.5393 -1.40337 -9.96136 72.6373 13.2026 11.4941 1.615 0.0281615 0.0462048 0.000533403 0.662642 16.6452 15.0153 -6.05075 -0.0213115 0.00482636 0.00187789 -32.7146 30.7028 37.3198 -3.18055e-015 5.96354e-016 -7.95139e-016 140.049 -73.0715 144.675 -78.8708 64.5568 -59.3451 10.1548 14.8873 0.251985 22.6233 7.08104 3.85382 61.827 -26.6042 69.5989 41.3022 55.4411 80.573 -2.31438 17.1151 4.19353 14.6899 -18.2621 -0.970311 -14.1364 38.8458 14.3351 41.3442 -1.10858 1.72998 -1.18446e-009 1.5602e-007 -4.87131e-009 
102.016 94.4992 167.566 -12.3565 0.433436 -93.4447 -16.4705 -17.0829 -1.4748 -26.6728 72.4645 30.4393 15.7658 1.65547 0.0963576 0.0462048 0.000533403 0.662642 18.1736 13.963 -5.48424 -0.0201715 0.00446881 0.00187914 -37.0551 33.1685 41.5466 -3.18055e-015 3.97569e-016 -7.95139e-016 122.539 -71.5029 129.541 -83.1841 61.4407 -54.9994 12.0866 13.4114 -4.79872 21.6156 7.72517 4.33247 60.849 -26.5184 69.218 49.8277 55.6952 75.8799 -3.56184 21.7561 1.744 12.9813 -19.3288 4.49324 -6.69209 40.0718 1.20945 51.1193 -0.288104 1.74343 -1.18446e-009 1.5602e-007 -4.87131e-009 
102.82 93.9822 166.616 -11.5979 0.189886 -93.2755 -15.2077 -15.4039 -1.06508 -32.1781 69.153 37.3741 11.8163 1.21857 0.0270067 0.0462048 0.000533403 0.662642 19.2962 12.9736 -4.69746 -0.0181631 0.00401654 0.00178284 -40.6677 35.0409 45.2277 3.18055e-015 3.97569e-016 -0 112.438 -70.4683 121.772 -85.3674 59.8627 -52.6961 10.1298 16.199 -7.32194 20.7661 8.24605 4.81692 60.4465 -26.1914 69.1116 54.3608 55.4378 73.0181 -4.35509 24.3171 0.533621 11.6402 -19.8991 9.49954 0.0489638 39.2143 -10.446 60.5044 0.659856 1.31028 -1.18446e-009 1.5602e-007 -4.87131e-009 
103.816 93.46 165.465 -10.6757 0.020166 -93.1107 -14.5668 -12.4845 0.195229 -29.6221 63.9242 36.092 16.2852 0.170706 0.180715 0.0462048 0.000533403 0.662642 20.092 12.06 -3.71585 -0.0159334 0.00368261 0.00136709 -43.4593 36.3641 48.2526 6.36111e-015 9.93923e-017 3.97569e-016 106.095 -70.0159 117.593 -86.3028 59.0529 -51.7287 11.2891 15.2125 -8.84775 19.8815 8.65194 5.18462 60.7799 -25.6167 69.361 56.5195 55.0562 71.312 -4.82297 25.3601 0.130274 10.8369 -20.2499 14.0553 5.38609 36.9276 -20.1331 69.3115 1.46523 0.53459 -1.18447e-009 1.5602e-007 -4.87131e-009 
104.96 93.0708 164.215 -9.64119 -0.0629746 -92.9734 -13.4645 -8.74625 1.68869 -25.2789 57.8623 31.7663 13.7556 -0.837927 0.270755 0.0462048 0.000533403 0.662642 20.6106 11.2744 -2.58637 -0.0141293 0.00368006 0.000409995 -44.5256 35.8497 49.7451 3.18055e-015 0 5.96354e-016 102.217 -69.9142 115.7 -86.7761 58.6958 -51.3466 10.1381 16.7658 -9.21422 19.04 8.9951 5.41139 61.6611 -24.8866 69.9678 57.3333 54.6872 70.2611 -5.11192 25.7839 -0.167768 10.4543 -20.1965 18.1318 8.99791 33.2155 -27.8164 77.4664 2.17558 -0.633609 -1.18446e-009 1.5602e-007 -4.87131e-009 
106.221 92.7236 162.847 -8.55858 -0.0567643 -92.8669 -12.8427 -4.29435 3.64994 -20.9595 50.9614 26.1809 15.5069 -2.27059 0.381719 0.0462048 0.000533403 0.662642 20.9027 10.6573 -1.38217 -0.0120896 0.00407984 -0.00185009 -44.0552 33.7591 49.7685 3.18055e-015 -4.96962e-017 2.48481e-016 100.113 -70.0126 115.434 -87.0511 58.5492 -51.2879 10.6471 16.0313 -9.36986 18.138 9.27415 5.39683 63.0779 -23.9126 70.8808 57.4526 54.4318 69.5525 -5.26326 25.5244 -0.222133 10.4967 -19.8333 21.7332 10.9143 28.6025 -33.7994 84.8895 2.73957 -2.09418 -1.18446e-009 1.5602e-007 -4.87131e-009 
107.596 92.3914 161.383 -7.50142 0.0198458 -92.7923 -12.1566 -0.447755 5.31974 -18.2405 44.5549 21.2344 14.4603 -3.79221 0.502798 0.0462048 0.000533403 0.662642 20.4559 11.3872 0.332354 -0.0518156 0.0962326 0.0267122 -41.2729 29.582 47.3242 0 9.93923e-017 -0 103.541 -70.3578 120.265 -87.4608 58.5425 -51.2665 9.74444 16.7656 -9.03323 17.9843 8.1943 5.01245 64.6432 -22.7017 71.9432 57.1948 54.3606 69.1049 -5.4427 25.3074 -0.45108 11.0946 -19.3634 23.8321 10.8006 23.896 -37.5248 91.5536 3.30223 -3.84802 -1.18446e-009 1.5602e-007 -4.87131e-009 
109.12 91.9947 159.82 -6.54747 0.137586 -92.7357 -11.7171 2.83465 6.86758 -16.5873 38.6196 16.7036 16.3761 -5.38398 0.671777 0.0462048 0.000533403 0.662642 19.2963 13.2677 2.23964 -0.0470584 0.0932307 0.00642234 -38.0461 24.8088 44.3435 0 3.97569e-016 -0 110.824 -70.3663 128.662 -88.2176 58.5789 -51.1338 9.78493 16.1085 -8.70035 18.4835 6.2415 4.50443 66.11 -21.396 73.0403 56.7912 54.4891 68.8611 -5.6085 24.9107 -0.623944 12.0167 -18.7658 24.5172 9.42728 19.2611 -39.6867 97.4671 3.91252 -5.90352 -1.18447e-009 1.5602e-007 -4.87131e-009 
110.816 91.9054 158.037 -5.79204 0.241825 -92.6726 -11.3415 5.78808 8.08592 -13.2787 34.2537 11.1154 13.2388 -6.33702 0.632575 0.0462048 0.000533403 0.662642 18.0771 14.8958 3.88828 0.00256849 -0.0168215 -0.0160885 -35.6215 20.4895 42.0864 3.18055e-015 1.59028e-015 -7.95139e-016 116.973 -70.1709 136.168 -93.2264 53.9608 -47.8419 6.7596 21.208 -8.54057 19.0798 4.75767 3.92225 67.2803 -20.2489 73.8938 56.3461 54.7407 68.8152 -5.89988 24.5786 -0.815501 13.0925 -19.5293 23.9484 9.15012 17.0329 -39.6682 95.2852 4.11823 -6.08293 -1.18446e-009 1.5602e-007 -4.87132e-009 
112.538 91.7328 156.155 -5.23902 0.331236 -92.5785 -11.8494 8.04446 9.38144 -8.39446 31.0179 5.54205 13.6252 -7.01612 0.85068 0.0462048 0.000533403 0.662642 16.8655 16.2796 5.23187 0.0072082 -0.0219417 -0.0182081 -33.7234 16.6088 40.2972 -3.18055e-015 1.59028e-015 -0 122.665 -69.8295 143.265 -96.4604 51.8151 -45.8828 5.52056 23.4333 -8.2616 19.6684 3.47984 3.34236 68.3783 -19.2116 74.5314 55.8864 55.0094 68.876 -6.20411 24.1864 -0.944113 13.9648 -19.9729 23.1552 8.60791 14.9674 -39.1046 92.9412 4.22762 -6.14899 -1.18446e-009 1.5602e-007 -4.87131e-009 
114.177 91.5871 154.273 -4.88442 0.417516 -92.4366 -12.5769 9.69241 10.4762 -2.57345 28.5426 0.357774 9.27443 -7.73678 0.803026 0.0462048 0.000533403 0.662642 15.74 17.418 6.2587 0.00720814 -0.0221301 -0.0182081 -32.3074 13.3542 38.9604 3.18055e-015 -2.78299e-015 -3.18055e-015 127.806 -69.4446 149.647 -98.7641 51.0269 -44.491 4.57186 24.9011 -7.83821 20.3875 2.36897 2.8982 69.2117 -18.3325 74.7929 55.4034 55.2422 69.0079 -6.56905 23.8503 -0.901679 14.6631 -20.0146 22.1686 7.84545 12.919 -38.0806 90.2989 4.36925 -6.18112 -1.18446e-009 1.5602e-007 -4.87131e-009 
115.771 91.451 152.415 -4.69938 0.502676 -92.2686 -13.3957 10.1272 10.972 2.41211 27.036 -2.77611 8.91066 -7.94542 0.993949 0.0462048 0.000533403 0.662642 14.7012 18.331 7.01508 0.00720876 -0.0202047 -0.0182081 -31.1832 10.7117 37.9675 1.59028e-015 1.98785e-015 1.59028e-015 132.543 -69.1591 155.371 -100.329 50.9576 -43.4863 4.2671 25.0826 -7.27967 21.0253 1.5703 2.55506 70.0335 -17.5833 74.872 54.8813 55.4285 69.1676 -6.64696 23.4113 -1.08993 15.117 -20.2437 21.0055 7.24026 12.1624 -34.3824 87.9952 4.35197 -5.95833 -1.18447e-009 1.5602e-007 -4.87131e-009 
117.179 91.4119 150.667 -4.65029 0.593584 -92.111 -13.9723 9.79874 10.869 7.13361 27.6568 -4.59449 3.94828 -7.31209 0.579281 0.0462048 0.000533403 0.662642 13.7427 19.0334 7.57051 0.00720937 -0.0182794 -0.0182081 -30.2732 8.69377 37.2477 1.59028e-015 -1.19271e-015 1.59028e-015 137.017 -69.0085 160.551 -101.27 51.2318 -42.7829 4.02378 25.2168 -6.70841 21.6198 1.01918 2.37919 70.7388 -17.0247 74.7425 54.3221 55.5616 69.3074 -6.61021 23.1552 -1.21912 15.4208 -20.5989 19.7788 6.62099 12.3669 -28.7718 85.7962 4.26686 -5.47902 -1.18447e-009 1.5602e-007 -4.87131e-009 
118.406 91.4799 149.08 -4.70799 0.677705 -91.9799 -15.0927 9.43442 11.015 11.161 27.655 -4.98127 5.10828 -6.78636 0.921915 0.0462048 0.000533403 0.662642 12.5815 19.2104 7.85979 0.00720937 -0.0182794 -0.0182081 -29.7406 8.85593 36.7579 0 3.97569e-016 -0 140.614 -69.0825 164.225 -101.606 51.662 -42.4402 4.12701 25.0283 -6.17401 22.3955 1.01166 2.35888 71.3432 -16.5722 74.5194 53.7136 55.6264 69.4202 -6.33435 22.9555 -1.33917 15.7107 -21.2747 18.613 5.9559 13.5364 -21.8447 83.418 4.09164 -4.73436 -1.18447e-009 1.5602e-007 -4.87131e-009 
119.423 91.7435 147.709 -4.84507 0.742466 -91.8786 -15.8164 8.86661 10.9657 13.9443 26.5299 -4.91717 2.69655 -6.74708 0.832762 0.0462048 0.000533403 0.662642 11.5293 19.2585 8.02416 0.00720937 -0.0182794 -0.0182081 -29.866 10.6987 36.1991 -3.18055e-015 1.98785e-015 -1.59028e-015 143.902 -69.2194 167.431 -101.516 52.1307 -42.3576 4.1904 24.8191 -5.626 22.9166 1.12826 2.41903 71.885 -16.2143 74.2342 53.0644 55.6321 69.5201 -6.06277 22.7177 -1.35453 16.0703 -22.0707 17.5847 4.93486 15.3259 -14.2988 80.7545 3.97894 -3.98687 -1.18446e-009 1.5602e-007 -4.87131e-009 
